PathFileType	3	(X/Y/Z)	RCH0000002 BBF 14.c3d
DataRate	CameraRate	NumFrames	NumMarkers	Units	OrigDataRate	OrigDataStartFrame	OrigNumFrames
100.0	100.0	12	23	mm	100.0	335	502
Frame#	Time	RASI			LPAT			LKNE			LANK			LMED			LHEE			RPAT			RKNE			RANK			RMED			RHEE			RTOE			LTOE			MAN			LASI			T2			T10			LPSI			RPSI			RTHI			LTHI			RTIB			LTIB			
		X1	Y1	Z1	X2	Y2	Z2	X3	Y3	Z3	X4	Y4	Z4	X5	Y5	Z5	X6	Y6	Z6	X7	Y7	Z7	X8	Y8	Z8	X9	Y9	Z9	X10	Y10	Z10	X11	Y11	Z11	X12	Y12	Z12	X13	Y13	Z13	X14	Y14	Z14	X15	Y15	Z15	X16	Y16	Z16	X17	Y17	Z17	X18	Y18	Z18	X19	Y19	Z19	X20	Y20	Z20	X21	Y21	Z21	X22	Y22	Z22	X23	Y23	Z23	

335	3.340	242.52384	-181.76430	643.17856	206.88784	-43.39848	336.49745	150.94612	13.93261	313.16068	-40.40764	46.20606	129.10323	-38.05874	-23.46343	134.61974	-54.70368	7.46316	174.98362	304.14537	-120.78297	379.12661	272.49686	-181.57813	340.56447	190.48830	-227.85226	84.94429	162.75307	-163.91131	97.19291	143.38335	-208.82396	123.28053	221.96654	-181.62351	72.36001	-14.45059	8.65001	89.27041	256.03934	-79.38837	940.87526	208.21704	-9.62310	623.86787	121.07904	-101.20373	956.92085	140.02146	-95.87493	774.81610	110.72952	-78.07805	681.23211	124.57979	-146.36718	691.30866	273.50864	-251.58191	452.10194	152.32715	74.06932	443.23825	258.14038	-264.75287	238.25256	80.65637	89.55449	238.83249	
336	3.350	252.00252	-183.97304	646.83166	223.94406	-45.12001	340.38073	167.72822	11.89622	316.04272	-23.28892	42.63875	131.88272	-18.88988	-27.04197	135.96950	-36.88198	2.53539	176.54626	306.30915	-125.59098	379.47481	273.21677	-186.08819	341.84038	190.74556	-228.70516	85.09123	163.25741	-164.87717	98.19077	143.74936	-209.99017	123.87007	222.21924	-182.33157	72.59540	4.38547	6.80251	91.95492	265.72831	-78.76266	943.83965	219.22030	-11.69920	625.67421	130.71154	-100.12699	959.60764	150.40562	-95.27543	777.62167	121.50195	-78.54925	684.59747	134.92727	-146.85872	695.46394	277.49568	-255.63547	453.48084	166.32469	72.01633	446.17145	258.11292	-268.13987	237.92568	95.91515	86.70427	243.00386	
337	3.360	261.33395	-186.14010	650.54785	241.05676	-46.42845	345.04818	184.44487	10.05418	319.62801	-5.61404	38.44250	134.43559	1.29541	-31.17241	137.12069	-18.45824	-3.18397	177.75854	307.63352	-129.93889	379.89964	273.28022	-190.29649	343.23759	190.91390	-229.32398	85.26930	163.73538	-165.57988	99.05395	143.93982	-210.82974	124.32686	222.46821	-182.85822	72.83862	24.27850	4.59526	94.67149	275.29956	-77.98066	947.03877	230.18081	-13.70429	627.95967	140.27063	-98.99152	962.60795	160.60902	-94.83735	780.70426	132.21827	-79.00501	688.26783	145.15173	-147.34549	699.69688	281.12097	-259.38185	454.85378	180.25759	70.25076	449.67833	257.47066	-271.25018	237.79099	110.85366	83.70527	247.58694	
338	3.370	270.53271	-188.21848	654.22565	258.25196	-47.31584	350.38176	201.15760	8.40987	323.78239	12.69038	33.68406	136.67762	22.43785	-35.77560	138.08485	0.62150	-9.53462	178.61795	308.19031	-133.75157	380.38507	272.77927	-194.11880	344.71630	190.95551	-229.68540	85.50065	164.16010	-165.98859	99.80166	143.94047	-211.29951	124.68553	222.67718	-183.19144	73.09518	45.15848	1.99456	97.33881	284.76823	-77.08302	950.37273	241.07912	-15.59421	630.62249	149.77469	-97.86060	965.82603	170.63814	-94.57314	783.96168	142.85975	-79.42228	692.12099	155.25084	-147.80575	703.90482	284.45910	-262.74528	456.16260	194.12412	68.78467	453.61221	256.24362	-274.01940	237.85587	125.65633	80.57696	252.35640	
339	3.380	279.60365	-190.16703	657.77096	275.54394	-47.80980	356.25085	217.93428	6.95350	328.35722	31.71626	28.47688	138.52950	44.46932	-40.73743	138.87887	20.40707	-16.30449	179.12785	308.09024	-137.02124	380.91596	271.81754	-197.52037	346.24248	190.85371	-229.78877	85.80061	164.52073	-166.09875	100.46083	143.75935	-211.39113	124.98174	222.82650	-183.33589	73.37053	66.96307	-1.00375	99.87789	294.15287	-76.10832	953.73291	251.89350	-17.33137	633.54305	159.24340	-96.78701	969.16001	180.49581	-94.47826	787.28700	153.40122	-79.77324	696.02489	165.21425	-148.21165	707.98669	287.56832	-265.69197	457.36525	207.92713	67.61286	457.81009	254.49126	-276.42397	238.11380	140.54698	77.35532	257.08179	
340	3.390	288.54171	-191.95385	661.10077	292.93164	-47.97221	362.51821	234.84145	5.66268	333.19880	51.56245	22.97559	139.92305	67.31570	-45.91606	139.51933	40.93578	-23.24585	179.29425	307.47693	-139.79998	381.47471	270.50711	-200.51172	347.78661	190.61535	-229.65737	86.17471	164.82313	-165.93386	101.06102	143.42663	-211.13273	125.24786	222.91515	-183.31339	73.66739	89.64073	-4.36937	102.21681	303.47466	-75.09061	957.00646	262.60304	-18.88827	636.59050	168.69721	-95.80978	972.50639	190.18100	-94.53245	790.57331	163.81352	-80.02717	699.84313	175.02432	-148.53122	711.84564	290.48851	-268.22819	458.43619	221.67514	66.71323	462.10301	252.30259	-278.47819	238.54373	155.76852	74.09394	261.54820	
341	3.400	297.33326	-193.55889	664.14583	310.39690	-47.89434	369.04471	251.93695	4.50408	338.15678	72.32324	17.36540	140.80606	90.90094	-51.15167	140.01654	62.22746	-30.09523	179.12183	306.51743	-142.18498	382.03983	268.96514	-203.13873	349.32258	190.26837	-229.33527	86.61828	165.08730	-165.54208	101.63013	142.99045	-210.58422	125.51065	222.95868	-183.16028	73.98442	113.15161	-8.03667	104.29457	312.75658	-74.05729	960.08103	273.19075	-20.25036	639.62979	178.15653	-94.95204	975.76441	199.68959	-94.70226	793.71810	174.06674	-80.15278	703.44078	184.65813	-148.73075	715.39161	293.24181	-270.39426	459.36525	235.38380	66.04828	466.32634	249.79142	-280.22634	239.11235	171.56073	70.86139	265.57355	
342	3.410	305.95884	-194.97527	666.85240	327.90452	-47.68911	375.69271	269.26330	3.43593	343.09094	94.07783	11.84742	141.14522	115.15131	-56.27813	140.36940	84.28296	-36.59509	178.60986	305.39059	-144.29858	382.58603	267.31033	-205.46910	350.82662	189.85576	-228.88075	87.11795	165.34251	-164.98859	102.19143	142.50989	-209.82725	125.79037	222.98416	-182.92245	74.31596	137.46629	-11.90829	106.06364	322.02241	-73.02769	962.84956	283.64646	-21.41771	642.52867	187.64099	-94.22023	978.83983	209.01600	-94.94445	796.62713	184.13386	-80.12066	706.69029	194.09068	-148.77751	718.54379	295.83639	-272.25496	460.15495	249.07710	65.56796	470.32926	247.08806	-281.73123	239.77818	188.13795	67.73505	269.02070	
343	3.420	314.39700	-196.20933	669.18280	345.40340	-47.48156	382.32824	286.84214	2.41120	347.87599	116.88147	6.62146	140.92691	139.99908	-61.13530	140.56194	107.08534	-42.51479	177.74904	304.27418	-146.26624	383.08517	265.65935	-207.57767	352.27628	189.42704	-228.35745	87.65449	165.62130	-164.34538	102.76157	142.04648	-208.95206	126.10106	223.02333	-182.64882	74.65281	162.56208	-15.86286	107.49101	331.29570	-72.01245	965.21493	293.96903	-22.40512	645.16412	197.16858	-93.60450	981.64811	218.15535	-95.20991	799.21765	193.99468	-79.90576	709.47699	203.29883	-148.64255	721.23297	298.27297	-273.88774	460.81672	262.78776	65.21326	473.98277	244.32882	-283.06126	240.49627	205.66903	64.79228	271.80308	
344	3.430	322.62890	-197.27910	671.11502	362.82879	-47.39857	388.82216	304.67023	1.38095	352.40393	140.75867	1.86843	140.15580	165.38438	-65.58096	140.56221	130.60258	-47.66876	176.51962	303.33261	-148.19617	383.50764	264.12336	-209.53292	353.64971	189.02912	-227.82489	88.20623	165.95337	-163.68025	103.34982	141.65570	-208.04352	126.45139	223.10555	-182.38452	74.98358	188.41752	-19.76599	108.55763	340.59875	-71.01359	967.09396	304.16779	-23.24076	647.42790	206.75493	-93.08043	984.11674	227.10600	-95.44774	801.42075	203.63926	-79.48969	711.70409	212.26572	-148.30325	723.40346	300.55309	-275.37020	461.36619	276.55609	64.92063	477.18536	241.64493	-284.27822	241.22273	224.26157	62.10051	273.88381	
345	3.440	330.64325	-198.21158	672.64130	380.10513	-47.55904	395.05062	322.71727	0.29762	356.58427	165.69853	-2.26552	138.85161	191.25433	-69.50126	140.32352	154.79010	-51.92989	174.89158	302.70659	-150.16397	383.82395	262.80466	-211.38698	354.92519	188.69798	-227.33014	88.75233	166.36056	-163.04706	103.95837	141.37983	-207.16889	126.84589	223.25173	-182.16500	75.29635	215.00525	-23.48347	109.25622	349.95186	-70.02540	968.42083	314.26294	-23.96322	649.23077	216.41258	-92.61155	986.18683	235.87207	-95.60913	803.18282	213.07092	-78.86264	713.29653	220.98505	-147.74547	725.01471	302.68761	-276.76900	461.81842	290.42695	64.62626	479.86590	239.15239	-285.42780	241.91844	243.95194	59.70844	275.26889	
346	3.450	338.44087	-199.03915	673.76608	397.14971	-48.06530	400.89493	340.92568	-0.88205	360.34213	191.65177	-5.68125	137.04454	217.55910	-72.81873	139.78797	179.59181	-55.23681	172.82670	302.50617	-152.20463	384.00641	261.79403	-213.17000	356.08153	188.45290	-226.90207	89.27565	166.85365	-162.47911	104.58360	141.24346	-206.36933	127.28638	223.47045	-182.01201	75.58030	242.28374	-26.89481	109.58783	359.37256	-69.03587	969.14954	324.28510	-24.61748	650.50543	226.15053	-92.15275	987.81382	244.46580	-95.65073	804.46608	222.30811	-78.02461	714.20368	229.46475	-146.96505	726.04222	304.70384	-278.13177	462.18382	304.44478	64.27026	481.98338	236.94398	-286.53420	242.55175	264.70177	57.63981	275.99588	
